<svg width="101" height="126" viewBox="0 0 101 126" fill="none" xmlns="http://www.w3.org/2000/svg">
<path d="M54.2537 52.2723C54.2537 53.2444 53.6687 54.1204 52.771 54.4918C51.8725 54.8642 50.8387 54.6584 50.1519 53.9715C49.465 53.2846 49.2592 52.2508 49.6306 51.3523C50.0029 50.4547 50.879 49.8697 51.851 49.8697C52.488 49.8687 53.0994 50.1225 53.5502 50.5733C54.0009 51.024 54.2538 51.6345 54.2538 52.2724L54.2537 52.2723ZM51.8509 62.2644C50.8789 62.2644 50.0028 62.8494 49.6305 63.748C49.2591 64.6456 49.4649 65.6793 50.1518 66.3664C50.8387 67.0543 51.8725 67.2591 52.7709 66.8877C53.6685 66.5153 54.2536 65.6393 54.2536 64.6672C54.2536 64.0303 54.0007 63.4188 53.55 62.9681C53.0992 62.5173 52.4878 62.2645 51.8508 62.2645L51.8509 62.2644ZM51.8509 76.7257C50.8789 76.7257 50.0028 77.3107 49.6305 78.2083C49.2591 79.1069 49.4649 80.1407 50.1518 80.8275C50.8387 81.5144 51.8725 81.7202 52.7709 81.3488C53.6685 80.9764 54.2536 80.1004 54.2536 79.1283C54.2536 78.4904 54.0007 77.8799 53.55 77.4292C53.0992 76.9784 52.4878 76.7256 51.8508 76.7256L51.8509 76.7257ZM37.0936 79.4665L24.8566 79.4656C23.7151 79.4656 22.791 80.3906 22.791 81.5312C22.791 82.6728 23.7151 83.5978 24.8566 83.5978H37.0936C38.2342 83.5978 39.1593 82.6728 39.1593 81.5312C39.1593 80.3906 38.2342 79.4656 37.0936 79.4656V79.4665ZM76.799 79.4665L64.562 79.4656C63.4214 79.4656 62.4964 80.3906 62.4964 81.5312C62.4964 82.6728 63.4214 83.5978 64.562 83.5978H76.798C77.9396 83.5978 78.8636 82.6728 78.8636 81.5312C78.8636 80.3906 77.9396 79.4656 76.798 79.4656L76.799 79.4665ZM100.895 43.1954V93.527C100.895 94.0747 100.677 94.6 100.289 94.988C99.9022 95.3751 99.377 95.5926 98.8293 95.5926H85.8023V123.879C85.8043 124.428 85.5877 124.954 85.1997 125.342C84.8117 125.73 84.2855 125.947 83.7367 125.945H17.9173C17.3686 125.947 16.8423 125.73 16.4543 125.342C16.0663 124.954 15.8497 124.428 15.8517 123.879V95.5976H2.83657C2.28782 95.5996 1.7616 95.383 1.37358 94.995C0.985533 94.607 0.76799 94.0808 0.769972 93.532V43.1854C0.806228 34.1016 3.97816 25.3089 9.74783 18.292C15.5185 11.2758 23.5341 6.46741 32.4405 4.67806L34.4444 2.17834C34.4777 2.11857 34.5179 2.06369 34.5639 2.01274L34.5796 1.99216C34.5904 1.97942 34.5982 1.96178 34.61 1.951H34.609C34.6913 1.82852 34.7961 1.72269 34.9196 1.64135C35.0068 1.561 35.1038 1.49142 35.2087 1.43459C35.3037 1.37579 35.4086 1.33366 35.5183 1.31014C35.631 1.26311 35.7496 1.23371 35.8711 1.22195C35.8936 1.21803 35.9103 1.20333 35.9328 1.20039C40.8707 0.518367 45.8436 0.117601 50.8264 0C55.8091 0.117588 60.7823 0.518367 65.7189 1.20039C65.7414 1.20333 65.7591 1.21803 65.7806 1.22195H65.7816C65.9031 1.23371 66.0217 1.26311 66.1343 1.31014C66.2441 1.33366 66.3489 1.3758 66.444 1.43459C66.5488 1.49142 66.6459 1.561 66.7331 1.64135C66.8565 1.72268 66.9614 1.82851 67.0437 1.951C67.0554 1.96276 67.0623 1.9804 67.0741 1.99216L67.0888 2.01274C67.1348 2.06369 67.175 2.11857 67.2083 2.17834L69.2122 4.67806L69.2475 4.72314H69.2485C78.1461 6.51146 86.1549 11.3159 91.9195 18.3253C97.6852 25.3344 100.855 34.1184 100.893 43.1943L100.895 43.1954ZM65.3311 13.5819C63.1499 21.3015 60.2661 28.8038 56.7158 35.9971C63.6369 30.9358 68.3883 27.2171 70.6187 25.42L68.2855 22.0315C67.9729 21.564 67.8543 20.9937 67.9543 20.4411C68.066 19.8953 68.3933 19.4181 68.8637 19.1182L73.2017 16.3089L66.9627 8.50002V8.48826C66.8598 8.47258 66.7589 8.44417 66.655 8.42947C66.6324 8.42653 66.6148 8.41085 66.5932 8.40693L66.5913 8.41771C66.509 8.83122 66.4051 9.24378 66.3228 9.63672C66.0131 10.9586 65.6819 12.2805 65.3311 13.5819V13.5819ZM61.1782 13.0861C57.7428 12.6823 54.2875 12.455 50.8284 12.405C47.3762 12.456 43.9279 12.6833 40.4992 13.0861C43.0813 21.868 46.5423 30.3677 50.8284 38.4551C55.1469 30.3788 58.6157 21.877 61.1782 13.0861ZM38.6188 5.02432V5.02922C38.8462 6.3717 39.1352 7.69456 39.4449 9.03714H39.4459C43.2242 8.58442 47.0235 8.32965 50.8284 8.2728C54.6334 8.32964 58.4324 8.58442 62.211 9.03714C62.5206 7.71525 62.8097 6.3718 63.0165 5.02922L63.0174 5.02236H63.0184C58.9734 4.51084 54.9048 4.21393 50.8284 4.13162C46.7462 4.21393 42.6705 4.51182 38.6187 5.02432L38.6188 5.02432ZM28.4552 16.3088L32.7932 19.1181C33.2636 19.418 33.5909 19.8952 33.7026 20.441C33.8133 20.9936 33.6937 21.5679 33.3714 22.0314L31.0372 25.4199C33.2685 27.2171 38.02 30.9357 44.9196 35.997C41.3998 28.7957 38.5305 21.2946 36.3463 13.5818C35.9749 12.2805 35.6437 10.9586 35.3547 9.63584C35.2518 9.22233 35.1479 8.83037 35.0656 8.41684V8.41782C35.0489 8.4335 35.0264 8.44133 35.0039 8.43839C34.901 8.45897 34.7971 8.45897 34.6942 8.47955L28.4552 16.3088ZM48.1423 43.4137C34.652 33.8077 27.0087 27.4864 26.9254 27.4031H26.9264C26.0994 26.728 25.9367 25.5276 26.5541 24.6565L28.7647 21.4335L24.3023 18.5409C23.8074 18.2293 23.4752 17.7158 23.3939 17.1367C23.2969 16.5644 23.4468 15.9794 23.8064 15.5247L28.0622 10.1951C21.2941 12.6693 15.4449 17.1573 11.3048 23.0564C7.16468 28.9545 4.93056 35.9805 4.90397 43.1866V91.4662H15.8533V87.618L15.8464 87.5857V41.9351C15.8464 40.7945 16.7715 39.8694 17.9121 39.8694C19.0537 39.8694 19.9787 40.7945 19.9787 41.9351V87.5506L19.9856 87.582L19.9846 121.814H43.4534V52.6077C43.4514 52.2618 43.5366 51.9208 43.7013 51.616L48.1423 43.4137ZM96.7631 43.1952C96.7317 35.9881 94.4946 28.9632 90.3535 23.0631C86.2113 17.1639 80.3634 12.6741 73.5951 10.1959L77.8498 15.5246C78.2095 15.9793 78.3594 16.5643 78.2624 17.1365C78.181 17.7157 77.8488 18.2291 77.354 18.5408L72.8915 21.4334L75.1022 24.6564C75.7195 25.5275 75.5569 26.7279 74.7298 27.403C74.6475 27.4853 66.5908 34.1379 52.4185 44.1985H52.3979L47.5845 53.1234V121.813H81.6707V41.9252C81.6707 40.7846 82.5958 39.8596 83.7364 39.8596C84.878 39.8596 85.802 40.7846 85.802 41.9252V91.4616H96.7621L96.7631 43.1952Z" fill="#ED1C24"/>
</svg>
