<svg width="138" height="138" viewBox="0 0 138 138" fill="none" xmlns="http://www.w3.org/2000/svg">
<path fill-rule="evenodd" clip-rule="evenodd" d="M79.8323 90.285H63.0747C56.9023 90.285 51.8988 85.2806 51.8988 79.1091V28.1576C51.8988 21.9861 56.9023 16.9817 63.0747 16.9817H115.404C121.577 16.9817 126.58 21.9861 126.58 28.1576V47.68C128.068 49.0499 129 51.0143 129 53.1961V73.828C129 83.0501 125.214 91.8296 118.589 98.1454V116.219C118.589 118.87 116.44 121.018 113.789 121.018H97.7666C94.0199 121.018 89.6962 120.563 89.6962 116.219V97.3724C88.881 96.9195 87.5205 96.0844 86.2601 95.1864C84.087 93.637 82.0786 92.2937 79.833 90.2838L79.8323 90.285ZM113.79 97.4349C113.79 96.7957 114.026 96.1788 114.453 95.7026C115.198 94.8744 116.301 93.6451 116.301 93.6451C121.343 88.3258 124.201 81.2433 124.201 73.8277V53.1958C124.201 51.7059 122.992 50.4973 121.502 50.4973H121.289C119.799 50.4973 118.59 51.7059 118.59 53.1958V62.1677C118.59 63.491 117.518 64.5643 116.194 64.5643H116.185C114.863 64.5643 113.79 63.492 113.79 62.1677V41.3796C113.79 39.8898 112.582 38.6811 111.09 38.6811H110.878C109.386 38.6811 108.178 39.8897 108.178 41.3796V62.1677C108.178 63.491 107.105 64.5643 105.783 64.5643H105.774C104.451 64.5643 103.377 63.492 103.377 62.1677V34.6259C103.377 33.1344 102.169 31.9274 100.679 31.9274H100.466C98.976 31.9274 97.7673 33.1352 97.7673 34.6259V62.1677C97.7673 63.491 96.695 64.5643 95.3707 64.5643H95.3629C94.0396 64.5643 92.9663 63.492 92.9663 62.1677V41.3796C92.9663 39.8898 91.7577 38.6811 90.2678 38.6811H90.0547C88.5649 38.6811 87.3562 39.8897 87.3562 41.3796V70.4739C87.3562 71.8775 86.5116 73.1431 85.2159 73.6822C83.9201 74.2213 82.4277 73.9272 81.433 72.9377C77.7855 69.3109 73.8034 65.3496 73.8034 65.3496C72.7466 64.2989 71.0384 64.3023 69.987 65.3608C69.937 65.4109 69.8869 65.4609 69.8377 65.5118C68.7861 66.5686 69.1459 68.0135 69.8472 69.3282C72.3205 73.9651 76.9247 80.8277 81.6376 85.3888C84.537 88.1969 85.9577 88.9354 88.225 90.69C89.8718 91.9651 92.0907 93.5515 93.3994 94.4771C94.0861 94.9619 94.495 95.7521 94.495 96.5933V116.221H113.788V97.436L113.79 97.4349ZM45.8684 69.2174H34.914C25.7239 69.2174 16.8191 74.7566 10.3205 84.8672C9.73907 85.7722 9.38106 86.3277 9.38106 86.3277C8.66503 87.4406 8.98769 88.9271 10.1023 89.6439C11.2168 90.36 12.7032 90.0373 13.4194 88.9227C13.4194 88.9227 13.7765 88.3672 14.3571 87.4631C19.8334 78.9433 27.1688 74.0173 34.913 74.0173H45.8674C47.1925 74.0173 48.2674 72.9424 48.2674 71.6174C48.2674 70.294 47.1925 69.2174 45.8674 69.2174L45.8684 69.2174ZM121.782 45.7016V28.1574C121.782 24.6369 118.927 21.7813 115.406 21.7813H63.0765C59.5551 21.7813 56.7004 24.6369 56.7004 28.1574V79.1088C56.7004 82.6294 59.5551 85.4849 63.0765 85.4849H75.2005C71.3081 80.9412 67.7271 75.5504 65.6127 71.587C63.8675 68.315 63.8192 64.7554 66.434 62.1251C66.484 62.0751 66.534 62.025 66.5849 61.9741C69.5052 59.0375 74.2543 59.0254 77.19 61.9457L82.5568 67.2831V41.3778C82.5568 37.2369 85.9143 33.8794 90.0552 33.8794H90.2682C91.2206 33.8794 92.1316 34.0571 92.971 34.3815C93.0995 30.3528 96.4071 27.1262 100.466 27.1262H100.679C104.74 27.1262 108.045 30.3526 108.174 34.3815C109.013 34.0571 109.924 33.8794 110.878 33.8794H111.09C115.233 33.8794 118.59 37.2369 118.59 41.3778V46.1958C119.428 45.8723 120.337 45.6946 121.289 45.6946H121.502C121.595 45.6946 121.688 45.6954 121.781 45.6998L121.782 45.7016ZM45.8684 50.5481H34.914C25.7239 50.5481 16.8191 56.0865 10.3205 66.1979C9.73907 67.102 9.38106 67.6576 9.38106 67.6576C8.66503 68.7722 8.98769 70.257 10.1023 70.9738C11.2168 71.6899 12.7032 71.3672 13.4194 70.2526C13.4194 70.2526 13.7765 69.6971 14.3571 68.793C19.8334 60.2741 27.1688 55.3481 34.913 55.3481H45.8674C47.1925 55.3481 48.2674 54.2715 48.2674 52.9481C48.2674 51.6231 47.1925 50.5482 45.8674 50.5482L45.8684 50.5481ZM45.8684 31.878H34.914C25.7239 31.878 16.8191 37.4173 10.3205 47.5278C9.73907 48.4319 9.38106 48.9875 9.38106 48.9875C8.66503 50.1021 8.98769 51.5884 10.1023 52.3037C11.2168 53.0197 12.7032 52.6971 13.4194 51.5825C13.4194 51.5825 13.7765 51.0278 14.3571 50.1229C19.8334 41.6039 27.1688 36.678 34.913 36.678H45.8674C47.1925 36.678 48.2674 35.6031 48.2674 34.278C48.2674 32.953 47.1925 31.8781 45.8674 31.8781L45.8684 31.878Z" fill="#E4161C"/>
</svg>
