<svg width="243" height="167" viewBox="0 0 243 167" fill="none" xmlns="http://www.w3.org/2000/svg">
<path d="M120.739 90.1485C120.118 90.1386 119.521 90.3802 119.079 90.8155C118.637 91.2508 118.388 91.845 118.388 92.4656C118.388 93.0863 118.637 93.6805 119.079 94.1158C119.521 94.551 120.118 94.7911 120.739 94.7828H154.674C155.577 94.7828 157.122 95.0377 157.035 95.0095V95.0079V95.0095C158.159 95.3703 158.232 95.5772 158.151 96.7292C158.08 97.7405 157.357 99.4254 155.89 101.216H120.739C120.118 101.208 119.521 101.448 119.079 101.883C118.637 102.319 118.388 102.913 118.388 103.533C118.388 104.154 118.637 104.748 119.079 105.184C119.521 105.619 120.118 105.859 120.739 105.851H156.984H156.982C157.626 105.851 158.24 105.582 158.679 105.112C161.099 102.512 162.578 99.7897 162.774 97.0551C162.967 94.3209 161.251 91.4956 158.454 90.5969C157.206 90.1947 155.998 90.1484 154.674 90.1484L120.739 90.1485Z" fill="#ED1C24"/>
<path d="M87.3293 90.1484C86.0052 90.1484 84.7986 90.1964 83.549 90.5969C80.7535 91.4957 79.0356 94.3226 79.2293 97.0551C79.4229 99.7893 80.9026 102.512 83.324 105.112C83.7627 105.582 84.3767 105.851 85.0205 105.851H121.266H121.264C121.885 105.859 122.482 105.619 122.924 105.184C123.366 104.748 123.615 104.154 123.615 103.533C123.615 102.913 123.366 102.319 122.924 101.883C122.482 101.448 121.885 101.208 121.264 101.216H86.1129C84.6465 99.4238 83.9248 97.7405 83.852 96.7292C83.7709 95.5789 83.8437 95.372 84.9676 95.0095V95.0079C84.8798 95.036 86.4257 94.7811 87.3294 94.7811H121.264V94.7828C121.885 94.791 122.482 94.5511 122.924 94.1158C123.366 93.6805 123.615 93.0863 123.615 92.4656C123.615 91.845 123.366 91.2508 122.924 90.8155C122.482 90.3802 121.885 90.1385 121.264 90.1485L87.3293 90.1484Z" fill="#ED1C24"/>
<path d="M205.765 52.0654C204.604 52.0654 203.623 52.9244 203.467 54.0747L202.32 62.6451C202.201 63.5339 201.12 64.479 200.223 64.479H165.875C162.013 64.479 158.314 66.7117 156.517 70.1295L153.95 75.0056H121.263C120.642 74.9973 120.044 75.2373 119.602 75.6726C119.161 76.1079 118.912 76.7021 118.912 77.3227C118.912 77.9434 119.161 78.5376 119.602 78.9729C120.044 79.4081 120.642 79.6482 121.263 79.6399H155.348C156.209 79.6399 156.998 79.1632 157.399 78.4018L160.618 72.2877C161.382 70.8345 164.233 69.1132 165.874 69.1132H200.223C203.606 69.1132 206.464 66.614 206.913 63.2609L207.792 56.7002H217.345C217.348 81.7834 215.216 101.893 211.046 116.947H176.803C174.943 114.859 172.314 113.604 169.328 113.455C165.988 113.288 150.134 113.306 120.725 113.452C120.101 113.44 119.498 113.682 119.055 114.119C118.61 114.557 118.361 115.157 118.365 115.781C118.368 116.405 118.621 117.002 119.071 117.436C119.52 117.869 120.124 118.104 120.748 118.086C150.15 117.941 166.61 117.959 169.097 118.083C171.453 118.2 172.765 118.939 173.839 120.549C174.269 121.194 174.993 121.582 175.767 121.582H212.832C213.86 121.582 214.765 120.905 215.055 119.918C219.866 103.551 222.141 81.7413 221.993 54.3705V54.3689C221.987 53.0944 220.951 52.0649 219.676 52.0649L205.765 52.0654Z" fill="#ED1C24"/>
<path d="M186.931 91.6271C183.908 91.6271 181.315 93.4825 180.34 96.3425L178.643 101.311V101.31C178.402 102.018 178.518 102.798 178.951 103.407C179.386 104.014 180.088 104.375 180.836 104.375H195.795C196.787 104.375 197.667 103.744 197.987 102.808L200.757 94.6927C200.999 93.9843 200.885 93.2048 200.45 92.5957C200.014 91.9883 199.313 91.6275 198.564 91.6275L186.931 91.6271ZM186.931 96.2616H195.325L194.137 99.7423H184.075L184.726 97.8389V97.8373C184.934 97.2249 186.283 96.2599 186.93 96.2599L186.931 96.2616Z" fill="#ED1C24"/>
<path d="M22.3238 52.0653C21.0493 52.0653 20.0132 53.0948 20.0066 54.3692C19.8609 81.7383 22.135 103.549 26.9448 119.917V119.919C27.2345 120.905 28.1398 121.582 29.1676 121.582H66.2325C67.0071 121.582 67.7304 121.195 68.1607 120.551C69.2349 118.941 70.5474 118.202 72.9024 118.085C75.3884 117.961 91.852 117.943 121.252 118.088V118.087C121.876 118.105 122.48 117.87 122.929 117.436C123.379 117.002 123.632 116.405 123.635 115.781C123.639 115.157 123.39 114.558 122.945 114.119C122.501 113.682 121.899 113.441 121.275 113.454C91.8654 113.308 76.0102 113.29 72.6714 113.457C69.6855 113.606 67.0589 114.861 65.1967 116.949L30.9542 116.948C26.7833 101.896 24.6515 81.785 24.6549 56.7006H34.2083L35.0855 63.2613C35.534 66.6146 38.3924 69.1136 41.7754 69.1136H76.1239C77.7658 69.1136 80.6161 70.8349 81.3804 72.2881H81.3821L84.6013 78.4022C85.0018 79.1636 85.7913 79.6402 86.652 79.6402H120.737C121.358 79.6485 121.955 79.4085 122.397 78.9732C122.839 78.5379 123.088 77.9437 123.088 77.3231C123.088 76.7024 122.839 76.1082 122.397 75.673C121.955 75.2377 121.358 74.9977 120.737 75.006H88.0502L85.4831 70.1299C83.684 66.7121 79.9863 64.4793 76.1251 64.4793H41.7766C40.8796 64.4793 39.7988 63.5342 39.6796 62.6455L38.5326 54.0751C38.3771 52.9248 37.3956 52.0658 36.2353 52.0658L22.3238 52.0653Z" fill="#ED1C24"/>
<path d="M43.4414 91.6272C42.6933 91.6272 41.9916 91.988 41.5563 92.5954C41.121 93.2045 41.0068 93.984 41.2484 94.6924L44.0191 102.807C44.3385 103.744 45.2191 104.375 46.2105 104.375H61.1696C61.9177 104.375 62.6194 104.014 63.0547 103.406C63.4883 102.797 63.6042 102.018 63.3626 101.309L61.6661 96.3406C60.6896 93.4805 58.096 91.6251 55.0753 91.6251L43.4414 91.6272ZM46.6805 96.2617H55.075C55.7222 96.2617 57.0711 97.2266 57.2796 97.839V97.8374V97.839L57.9301 99.7424L47.8687 99.7408L46.6805 96.2617Z" fill="#ED1C24"/>
</svg>
