<svg width="243" height="167" viewBox="0 0 243 167" fill="none" xmlns="http://www.w3.org/2000/svg">
<path d="M87.7252 52.064C87.0314 50.4991 85.9394 48.3576 84.4471 46.3841C82.8094 44.2185 80.6493 42.2021 77.9542 41.4243L77.9542 41.4242L77.9421 41.421C75.0396 40.6617 71.9499 41.2964 69.582 43.1375C67.0286 45.0532 64.0988 49.0396 64.0988 57.1217C64.0988 60.2679 65.0656 64.1101 66.4972 68.0886C67.9321 72.0765 69.8491 76.242 71.7817 80.0477C75.454 87.2793 79.1989 93.2428 79.841 94.2653C79.8581 94.2926 79.873 94.3164 79.8857 94.3366C80.9583 97.4961 82.0716 100.435 83.0735 102.749C83.5772 103.912 84.0551 104.922 84.4879 105.725C84.9139 106.516 85.3172 107.146 85.6784 107.514L85.6794 107.515C89.218 111.102 95.0252 114.106 101.165 116.212C107.313 118.32 113.865 119.553 118.94 119.553C124.015 119.553 130.581 118.316 136.736 116.205C142.883 114.098 148.691 111.094 152.201 107.514C152.562 107.146 152.972 106.507 153.408 105.704C153.851 104.889 154.344 103.86 154.865 102.678C155.902 100.327 157.059 97.3453 158.169 94.1654C158.985 92.918 162.856 86.7398 166.551 79.3839C168.426 75.6511 170.259 71.6065 171.625 67.7434C172.988 63.889 173.9 60.177 173.9 57.1217C173.9 49.0395 170.97 45.053 168.417 43.1374C166.049 41.2971 162.959 40.6632 160.056 41.4209L160.056 41.4208L160.046 41.4238C157.346 42.1925 155.187 44.2007 153.552 46.3627C152.054 48.3438 150.962 50.4985 150.269 52.072C150.179 52.0427 150.087 52.0146 149.992 51.9876C147.249 51.2069 144.22 50.0311 140.98 48.7728L140.857 48.725C140.857 48.7249 140.857 48.7249 140.856 48.7249C134.078 46.0844 126.244 43.0438 118.973 43.0438C110.99 43.0438 101.779 46.6568 94.4597 49.5276L94.3613 49.5662L94.3604 49.5666C91.9681 50.5106 89.7213 51.3965 87.8495 52.0199C87.8083 52.0336 87.7668 52.0484 87.7252 52.064ZM156.806 49.3342C158.078 47.5747 159.584 46.1398 161.213 45.6564L161.239 45.6499C162.814 45.2555 164.483 45.6167 165.753 46.6268L165.759 46.6313L165.764 46.6356C168.127 48.4056 169.5 52.0696 169.5 57.1217C169.5 59.9983 168.479 63.7636 166.935 67.7919C165.797 70.7617 164.387 73.8469 162.925 76.7824C163.038 75.922 163.118 75.0571 163.163 74.1897L163.164 74.182L163.164 74.1743C163.238 70.7611 162.264 66.7713 160.603 63.1208C159.003 59.6046 156.744 56.3547 154.107 54.2185C154.706 52.7937 155.632 50.9589 156.806 49.3342ZM74.9807 73.108C75.0429 74.5454 75.1836 75.9773 75.4019 77.3974C73.8798 74.3959 72.4014 71.2162 71.2052 68.1485C69.5862 63.9963 68.5056 60.1019 68.5001 57.1455L68.5002 57.1447V57.1217C68.5002 52.0869 69.8817 48.4054 72.2365 46.6352L72.2366 46.6354L72.2476 46.6266C73.5147 45.617 75.1808 45.2553 76.7534 45.648C78.3903 46.1166 79.904 47.5618 81.1885 49.3414C82.3649 50.9713 83.3005 52.8134 83.9219 54.246C78.8937 58.2504 74.9802 66.0616 74.9802 73.0864V73.0972L74.9807 73.108ZM82.4873 62.6532C84.3801 59.448 86.863 56.9847 89.2724 56.1786C91.2515 55.5197 93.5504 54.614 96.0056 53.6214C103.062 50.8507 111.831 47.4321 118.999 47.4321C125.406 47.4321 132.393 50.14 139.286 52.8163L139.288 52.8173C139.77 53.0013 140.247 53.1847 140.719 53.3663C143.565 54.461 146.244 55.4913 148.81 56.2262C149.318 56.3834 149.804 56.6023 150.258 56.8775C150.339 56.9341 150.42 56.9835 150.501 57.0276C152.634 58.3895 154.747 61.0663 156.309 64.2327C157.871 67.4006 158.845 70.9855 158.755 74.1005L158.754 74.1052C158.718 75.9775 158.2 78.71 157.403 81.813C156.608 84.9054 155.543 88.33 154.432 91.5708C153.32 94.8114 152.163 97.8618 151.184 100.205C150.694 101.378 150.25 102.368 149.881 103.115C149.696 103.489 149.532 103.797 149.392 104.034C149.247 104.279 149.144 104.421 149.084 104.484L149.034 104.535C146.364 107.233 141.417 109.9 135.828 111.9C130.211 113.909 124.026 115.215 119 115.215C113.909 115.215 107.754 113.932 102.165 111.934C96.5689 109.933 91.6151 107.242 88.8786 104.473C88.8142 104.404 88.7083 104.256 88.5626 104.005C88.4196 103.758 88.253 103.439 88.0661 103.051C87.6923 102.277 87.2466 101.251 86.7564 100.037C85.7763 97.612 84.6263 94.458 83.5284 91.1094C82.4305 87.7606 81.3871 84.224 80.6187 81.0327C79.8477 77.8307 79.3629 75.0132 79.3629 73.0869C79.3629 69.672 80.6027 65.8443 82.4873 62.6532Z" fill="#ED1C24" stroke="#E4161C"/>
<path d="M137.395 87.3952C137.267 87.3952 124.645 89.7046 119.001 89.7046C113.357 89.7046 100.734 87.4209 100.607 87.3952C99.6822 87.2262 98.795 87.8388 98.6266 88.7623C98.4574 89.6865 99.0698 90.5721 99.995 90.7411C100.53 90.8344 113.051 93.0847 119.001 93.0847C124.951 93.0847 137.472 90.8176 138.007 90.7236C138.932 90.5553 139.544 89.669 139.375 88.7456C139.206 87.8213 138.319 87.2095 137.395 87.3785V87.3952Z" fill="#ED1C24"/>
<path d="M137.395 76.3569C137.267 76.3569 124.645 78.6663 119.001 78.6663C113.357 78.6663 100.734 76.3825 100.607 76.3569C99.6822 76.1878 98.795 76.8005 98.6266 77.7239C98.4574 78.6482 99.0698 79.5338 99.995 79.7028C100.53 79.796 113.051 82.0463 119.001 82.0463C124.951 82.0463 137.472 79.7792 138.007 79.6853C138.932 79.517 139.544 78.6307 139.375 77.7072C139.206 76.783 138.319 76.1711 137.395 76.3402V76.3569Z" fill="#ED1C24"/>
<path d="M137.395 65.3166C137.267 65.3166 124.645 67.626 119.001 67.626C113.357 67.626 100.734 65.3422 100.607 65.3166C99.6822 65.1475 98.795 65.7602 98.6266 66.6837C98.4574 67.6079 99.0698 68.4935 99.995 68.6625C100.53 68.7557 113.051 71.006 119.001 71.006C124.951 71.006 137.472 68.739 138.007 68.645C138.932 68.4767 139.544 67.5904 139.375 66.667C139.206 65.7427 138.319 65.1309 137.395 65.2999V65.3166Z" fill="#ED1C24"/>
</svg>
